<?xml version="1.0" encoding="UTF-8" standalone="no"?>
<!DOCTYPE svg PUBLIC "-//W3C//DTD SVG 1.1//EN"
 "http://www.w3.org/Graphics/SVG/1.1/DTD/svg11.dtd">
<!-- Generated by graphviz version 2.42.4 (0)
 -->
<!-- Title: interact_session Pages: 1 -->
<svg width="283pt" height="64pt"
 viewBox="0.00 0.00 283.00 64.00" xmlns="http://www.w3.org/2000/svg" xmlns:xlink="http://www.w3.org/1999/xlink">
<g id="graph0" class="graph" transform="scale(1 1) rotate(0) translate(4 60)">
<title>interact_session</title>
<!-- Node1 -->
<g id="Node000001" class="node">
<title>Node1</title>
<g id="a_Node000001"><a xlink:title="Interact with a session in a pseudo&#45;terminal loop.">
<polygon fill="#999999" stroke="#666666" points="96,-37 0,-37 0,-18 96,-18 96,-37"/>
<text text-anchor="middle" x="48" y="-25" font-family="Helvetica,sans-Serif" font-size="10.00">interact_session</text>
</a>
</g>
</g>
<!-- Node2 -->
<g id="Node000002" class="node">
<title>Node2</title>
<g id="a_Node000002"><a xlink:href="documented_8c.html#a504d35ae75d68968c45f141b3bbcbbcd" target="_top" xlink:title="Read and print available output from a session&#39;s output pipe.">
<polygon fill="white" stroke="#666666" points="242.5,-56 164.5,-56 164.5,-37 242.5,-37 242.5,-56"/>
<text text-anchor="middle" x="203.5" y="-44" font-family="Helvetica,sans-Serif" font-size="10.00">drain_output</text>
</a>
</g>
</g>
<!-- Node1&#45;&gt;Node2 -->
<g id="edge1_Node000001_Node000002" class="edge">
<title>Node1&#45;&gt;Node2</title>
<g id="a_edge1_Node000001_Node000002"><a xlink:title=" ">
<path fill="none" stroke="#63b8ff" d="M96.31,-33.36C114.74,-35.64 135.84,-38.25 154.36,-40.54"/>
<polygon fill="#63b8ff" stroke="#63b8ff" points="153.99,-44.02 164.34,-41.78 154.85,-37.07 153.99,-44.02"/>
</a>
</g>
</g>
<!-- Node3 -->
<g id="Node000003" class="node">
<title>Node3</title>
<g id="a_Node000003"><a xlink:href="documented_8c.html#a90c498b005e5a791ee3571c7526d6ef8" target="_top" xlink:title="Remove and cleanup a session by array index (0&#45;based).">
<polygon fill="white" stroke="#666666" points="275,-19 132,-19 132,0 275,0 275,-19"/>
<text text-anchor="middle" x="203.5" y="-7" font-family="Helvetica,sans-Serif" font-size="10.00">remove_session_at_index</text>
</a>
</g>
</g>
<!-- Node1&#45;&gt;Node3 -->
<g id="edge2_Node000001_Node000003" class="edge">
<title>Node1&#45;&gt;Node3</title>
<g id="a_edge2_Node000001_Node000003"><a xlink:title=" ">
<path fill="none" stroke="#63b8ff" d="M96.31,-21.95C104.41,-21 113.03,-19.99 121.72,-18.97"/>
<polygon fill="#63b8ff" stroke="#63b8ff" points="122.4,-22.42 131.93,-17.78 121.59,-15.46 122.4,-22.42"/>
</a>
</g>
</g>
</g>
</svg>
