<?xml version="1.0" encoding="UTF-8" standalone="no"?>
<!DOCTYPE svg PUBLIC "-//W3C//DTD SVG 1.1//EN"
 "http://www.w3.org/Graphics/SVG/1.1/DTD/svg11.dtd">
<!-- Generated by graphviz version 2.42.4 (0)
 -->
<!-- Title: drain_output Pages: 1 -->
<svg width="295pt" height="27pt"
 viewBox="0.00 0.00 295.00 27.00" xmlns="http://www.w3.org/2000/svg" xmlns:xlink="http://www.w3.org/1999/xlink">
<g id="graph0" class="graph" transform="scale(1 1) rotate(0) translate(4 23)">
<title>drain_output</title>
<!-- Node1 -->
<g id="Node000001" class="node">
<title>Node1</title>
<g id="a_Node000001"><a xlink:title="Read and print available output from a session&#39;s output pipe.">
<polygon fill="#999999" stroke="#666666" points="287,-19 209,-19 209,0 287,0 287,-19"/>
<text text-anchor="middle" x="248" y="-7" font-family="Helvetica,sans-Serif" font-size="10.00">drain_output</text>
</a>
</g>
</g>
<!-- Node2 -->
<g id="Node000002" class="node">
<title>Node2</title>
<g id="a_Node000002"><a xlink:href="documented_8c.html#ae68d61c35976cb4b4e3b2a51f2ae2412" target="_top" xlink:title="Interact with a session in a pseudo&#45;terminal loop.">
<polygon fill="white" stroke="#666666" points="173,-19 77,-19 77,0 173,0 173,-19"/>
<text text-anchor="middle" x="125" y="-7" font-family="Helvetica,sans-Serif" font-size="10.00">interact_session</text>
</a>
</g>
</g>
<!-- Node1&#45;&gt;Node2 -->
<g id="edge1_Node000001_Node000002" class="edge">
<title>Node1&#45;&gt;Node2</title>
<g id="a_edge1_Node000001_Node000002"><a xlink:title=" ">
<path fill="none" stroke="#63b8ff" d="M198.46,-9.5C190.2,-9.5 181.62,-9.5 173.39,-9.5"/>
<polygon fill="#63b8ff" stroke="#63b8ff" points="198.71,-13 208.71,-9.5 198.71,-6 198.71,-13"/>
</a>
</g>
</g>
<!-- Node3 -->
<g id="Node000003" class="node">
<title>Node3</title>
<g id="a_Node000003"><a xlink:href="documented_8c.html#a3c04138a5bfe5d72780bb7e82a18e627" target="_top" xlink:title="Program entry point and interactive command loop.">
<polygon fill="white" stroke="#666666" points="41,-19 0,-19 0,0 41,0 41,-19"/>
<text text-anchor="middle" x="20.5" y="-7" font-family="Helvetica,sans-Serif" font-size="10.00">main</text>
</a>
</g>
</g>
<!-- Node2&#45;&gt;Node3 -->
<g id="edge2_Node000002_Node000003" class="edge">
<title>Node2&#45;&gt;Node3</title>
<g id="a_edge2_Node000002_Node000003"><a xlink:title=" ">
<path fill="none" stroke="#63b8ff" d="M66.87,-9.5C57.62,-9.5 48.63,-9.5 41.13,-9.5"/>
<polygon fill="#63b8ff" stroke="#63b8ff" points="66.95,-13 76.95,-9.5 66.95,-6 66.95,-13"/>
</a>
</g>
</g>
</g>
</svg>
