<?xml version="1.0" encoding="UTF-8" standalone="no"?>
<!DOCTYPE svg PUBLIC "-//W3C//DTD SVG 1.1//EN"
 "http://www.w3.org/Graphics/SVG/1.1/DTD/svg11.dtd">
<!-- Generated by graphviz version 2.42.4 (0)
 -->
<!-- Title: add_session Pages: 1 -->
<svg width="287pt" height="64pt"
 viewBox="0.00 0.00 287.00 64.00" xmlns="http://www.w3.org/2000/svg" xmlns:xlink="http://www.w3.org/1999/xlink">
<g id="graph0" class="graph" transform="scale(1 1) rotate(0) translate(4 60)">
<title>add_session</title>
<!-- Node1 -->
<g id="Node000001" class="node">
<title>Node1</title>
<g id="a_Node000001"><a xlink:title="Add a new session to the global session list.">
<polygon fill="#999999" stroke="#666666" points="279,-37 202,-37 202,-18 279,-18 279,-37"/>
<text text-anchor="middle" x="240.5" y="-25" font-family="Helvetica,sans-Serif" font-size="10.00">add_session</text>
</a>
</g>
</g>
<!-- Node2 -->
<g id="Node000002" class="node">
<title>Node2</title>
<g id="a_Node000002"><a xlink:href="documented_8c.html#add2ae839253cf752c14f638ded505a22" target="_top" xlink:title="Connect to a remote bind shell using netcat and register a session.">
<polygon fill="white" stroke="#666666" points="166,-56 77,-56 77,-37 166,-37 166,-56"/>
<text text-anchor="middle" x="121.5" y="-44" font-family="Helvetica,sans-Serif" font-size="10.00">connect_target</text>
</a>
</g>
</g>
<!-- Node1&#45;&gt;Node2 -->
<g id="edge1_Node000001_Node000002" class="edge">
<title>Node1&#45;&gt;Node2</title>
<g id="a_edge1_Node000001_Node000002"><a xlink:title=" ">
<path fill="none" stroke="#63b8ff" d="M191.74,-35.26C183.29,-36.63 174.53,-38.05 166.2,-39.4"/>
<polygon fill="#63b8ff" stroke="#63b8ff" points="192.53,-38.67 201.84,-33.62 191.4,-31.76 192.53,-38.67"/>
</a>
</g>
</g>
<!-- Node4 -->
<g id="Node000004" class="node">
<title>Node4</title>
<g id="a_Node000004"><a xlink:href="documented_8c.html#a63e555e101e53f240af566cf6650ac8d" target="_top" xlink:title="Start a netcat listener on the specified port and register a session.">
<polygon fill="white" stroke="#666666" points="162,-19 81,-19 81,0 162,0 162,-19"/>
<text text-anchor="middle" x="121.5" y="-7" font-family="Helvetica,sans-Serif" font-size="10.00">start_listener</text>
</a>
</g>
</g>
<!-- Node1&#45;&gt;Node4 -->
<g id="edge3_Node000001_Node000004" class="edge">
<title>Node1&#45;&gt;Node4</title>
<g id="a_edge3_Node000001_Node000004"><a xlink:title=" ">
<path fill="none" stroke="#63b8ff" d="M191.77,-20.16C181.91,-18.64 171.64,-17.06 162.11,-15.59"/>
<polygon fill="#63b8ff" stroke="#63b8ff" points="191.42,-23.64 201.84,-21.71 192.48,-16.73 191.42,-23.64"/>
</a>
</g>
</g>
<!-- Node3 -->
<g id="Node000003" class="node">
<title>Node3</title>
<g id="a_Node000003"><a xlink:href="documented_8c.html#a3c04138a5bfe5d72780bb7e82a18e627" target="_top" xlink:title="Program entry point and interactive command loop.">
<polygon fill="white" stroke="#666666" points="41,-37 0,-37 0,-18 41,-18 41,-37"/>
<text text-anchor="middle" x="20.5" y="-25" font-family="Helvetica,sans-Serif" font-size="10.00">main</text>
</a>
</g>
</g>
<!-- Node2&#45;&gt;Node3 -->
<g id="edge2_Node000002_Node000003" class="edge">
<title>Node2&#45;&gt;Node3</title>
<g id="a_edge2_Node000002_Node000003"><a xlink:title=" ">
<path fill="none" stroke="#63b8ff" d="M66.84,-36.2C57.68,-34.44 48.72,-32.72 41.21,-31.28"/>
<polygon fill="#63b8ff" stroke="#63b8ff" points="66.31,-39.66 76.79,-38.11 67.63,-32.79 66.31,-39.66"/>
</a>
</g>
</g>
<!-- Node4&#45;&gt;Node3 -->
<g id="edge4_Node000004_Node000003" class="edge">
<title>Node4&#45;&gt;Node3</title>
<g id="a_edge4_Node000004_Node000003"><a xlink:title=" ">
<path fill="none" stroke="#63b8ff" d="M70.76,-18.54C60.22,-20.46 49.69,-22.37 41.09,-23.94"/>
<polygon fill="#63b8ff" stroke="#63b8ff" points="71.59,-21.95 80.8,-16.72 70.34,-15.06 71.59,-21.95"/>
</a>
</g>
</g>
</g>
</svg>
