<?xml version="1.0" encoding="UTF-8" standalone="no"?>
<!DOCTYPE svg PUBLIC "-//W3C//DTD SVG 1.1//EN"
 "http://www.w3.org/Graphics/SVG/1.1/DTD/svg11.dtd">
<!-- Generated by graphviz version 2.42.4 (0)
 -->
<!-- Title: remove_session_at_index Pages: 1 -->
<svg width="360pt" height="64pt"
 viewBox="0.00 0.00 360.00 64.00" xmlns="http://www.w3.org/2000/svg" xmlns:xlink="http://www.w3.org/1999/xlink">
<g id="graph0" class="graph" transform="scale(1 1) rotate(0) translate(4 60)">
<title>remove_session_at_index</title>
<!-- Node1 -->
<g id="Node000001" class="node">
<title>Node1</title>
<g id="a_Node000001"><a xlink:title="Remove and cleanup a session by array index (0&#45;based).">
<polygon fill="#999999" stroke="#666666" points="352,-37 209,-37 209,-18 352,-18 352,-37"/>
<text text-anchor="middle" x="280.5" y="-25" font-family="Helvetica,sans-Serif" font-size="10.00">remove_session_at_index</text>
</a>
</g>
</g>
<!-- Node2 -->
<g id="Node000002" class="node">
<title>Node2</title>
<g id="a_Node000002"><a xlink:href="documented_8c.html#a5ac8c57000bf344f575d3f3ad1dc4e9f" target="_top" xlink:title="Poll all sessions to detect terminated child processes.">
<polygon fill="white" stroke="#666666" points="171,-56 79,-56 79,-37 171,-37 171,-56"/>
<text text-anchor="middle" x="125" y="-44" font-family="Helvetica,sans-Serif" font-size="10.00">check_sessions</text>
</a>
</g>
</g>
<!-- Node1&#45;&gt;Node2 -->
<g id="edge1_Node000001_Node000002" class="edge">
<title>Node1&#45;&gt;Node2</title>
<g id="a_edge1_Node000001_Node000002"><a xlink:title=" ">
<path fill="none" stroke="#63b8ff" d="M198.43,-37.53C189.07,-38.69 179.8,-39.84 171.18,-40.91"/>
<polygon fill="#63b8ff" stroke="#63b8ff" points="199.1,-40.98 208.59,-36.28 198.24,-34.03 199.1,-40.98"/>
</a>
</g>
</g>
<!-- Node4 -->
<g id="Node000004" class="node">
<title>Node4</title>
<g id="a_Node000004"><a xlink:href="documented_8c.html#ae68d61c35976cb4b4e3b2a51f2ae2412" target="_top" xlink:title="Interact with a session in a pseudo&#45;terminal loop.">
<polygon fill="white" stroke="#666666" points="173,-19 77,-19 77,0 173,0 173,-19"/>
<text text-anchor="middle" x="125" y="-7" font-family="Helvetica,sans-Serif" font-size="10.00">interact_session</text>
</a>
</g>
</g>
<!-- Node1&#45;&gt;Node4 -->
<g id="edge3_Node000001_Node000004" class="edge">
<title>Node1&#45;&gt;Node4</title>
<g id="a_edge3_Node000001_Node000004"><a xlink:title=" ">
<path fill="none" stroke="#63b8ff" d="M198.5,-18C189.91,-16.99 181.38,-15.99 173.37,-15.05"/>
<polygon fill="#63b8ff" stroke="#63b8ff" points="198.25,-21.5 208.59,-19.18 199.07,-14.54 198.25,-21.5"/>
</a>
</g>
</g>
<!-- Node3 -->
<g id="Node000003" class="node">
<title>Node3</title>
<g id="a_Node000003"><a xlink:href="documented_8c.html#a3c04138a5bfe5d72780bb7e82a18e627" target="_top" xlink:title="Program entry point and interactive command loop.">
<polygon fill="white" stroke="#666666" points="41,-37 0,-37 0,-18 41,-18 41,-37"/>
<text text-anchor="middle" x="20.5" y="-25" font-family="Helvetica,sans-Serif" font-size="10.00">main</text>
</a>
</g>
</g>
<!-- Node2&#45;&gt;Node3 -->
<g id="edge2_Node000002_Node000003" class="edge">
<title>Node2&#45;&gt;Node3</title>
<g id="a_edge2_Node000002_Node000003"><a xlink:title=" ">
<path fill="none" stroke="#63b8ff" d="M68.8,-36.27C58.87,-34.43 49.14,-32.62 41.12,-31.14"/>
<polygon fill="#63b8ff" stroke="#63b8ff" points="68.27,-39.73 78.74,-38.11 69.55,-32.85 68.27,-39.73"/>
</a>
</g>
</g>
<!-- Node4&#45;&gt;Node3 -->
<g id="edge4_Node000004_Node000003" class="edge">
<title>Node4&#45;&gt;Node3</title>
<g id="a_edge4_Node000004_Node000003"><a xlink:title=" ">
<path fill="none" stroke="#63b8ff" d="M66.87,-19.53C57.62,-21.16 48.63,-22.74 41.13,-24.05"/>
<polygon fill="#63b8ff" stroke="#63b8ff" points="67.71,-22.94 76.95,-17.76 66.5,-16.04 67.71,-22.94"/>
</a>
</g>
</g>
</g>
</svg>
