<?xml version="1.0" encoding="UTF-8" standalone="no"?>
<!DOCTYPE svg PUBLIC "-//W3C//DTD SVG 1.1//EN"
 "http://www.w3.org/Graphics/SVG/1.1/DTD/svg11.dtd">
<!-- Generated by graphviz version 2.42.4 (0)
 -->
<!-- Title: print_help Pages: 1 -->
<svg width="264pt" height="46pt"
 viewBox="0.00 0.00 264.00 46.00" xmlns="http://www.w3.org/2000/svg" xmlns:xlink="http://www.w3.org/1999/xlink">
<g id="graph0" class="graph" transform="scale(1 1) rotate(0) translate(4 42)">
<title>print_help</title>
<!-- Node1 -->
<g id="Node000001" class="node">
<title>Node1</title>
<g id="a_Node000001"><a xlink:title="Print the interactive help / command menu to stdout.">
<polygon fill="#999999" stroke="#666666" points="256,-38 191,-38 191,-19 256,-19 256,-38"/>
<text text-anchor="middle" x="223.5" y="-26" font-family="Helvetica,sans-Serif" font-size="10.00">print_help</text>
</a>
</g>
</g>
<!-- Node2 -->
<g id="Node000002" class="node">
<title>Node2</title>
<g id="a_Node000002"><a xlink:href="documented_8c.html#a3c04138a5bfe5d72780bb7e82a18e627" target="_top" xlink:title="Program entry point and interactive command loop.">
<polygon fill="white" stroke="#666666" points="41,-38 0,-38 0,-19 41,-19 41,-38"/>
<text text-anchor="middle" x="20.5" y="-26" font-family="Helvetica,sans-Serif" font-size="10.00">main</text>
</a>
</g>
</g>
<!-- Node1&#45;&gt;Node2 -->
<g id="edge1_Node000001_Node000002" class="edge">
<title>Node1&#45;&gt;Node2</title>
<g id="a_edge1_Node000001_Node000002"><a xlink:title=" ">
<path fill="none" stroke="#63b8ff" d="M180.53,-28.5C137.72,-28.5 73.14,-28.5 41.04,-28.5"/>
<polygon fill="#63b8ff" stroke="#63b8ff" points="180.65,-32 190.65,-28.5 180.65,-25 180.65,-32"/>
</a>
</g>
</g>
<!-- Node3 -->
<g id="Node000003" class="node">
<title>Node3</title>
<g id="a_Node000003"><a xlink:href="documented_8c.html#ad6da18174ed9892c214e56bac27bfc7f" target="_top" xlink:title="Print the ASCII art banner and program metadata.">
<polygon fill="white" stroke="#666666" points="155,-19 77,-19 77,0 155,0 155,-19"/>
<text text-anchor="middle" x="116" y="-7" font-family="Helvetica,sans-Serif" font-size="10.00">print_banner</text>
</a>
</g>
</g>
<!-- Node1&#45;&gt;Node3 -->
<g id="edge2_Node000001_Node000003" class="edge">
<title>Node1&#45;&gt;Node3</title>
<g id="a_edge2_Node000001_Node000003"><a xlink:title=" ">
<path fill="none" stroke="#63b8ff" d="M180.84,-21C172.43,-19.48 163.63,-17.9 155.34,-16.4"/>
<polygon fill="#63b8ff" stroke="#63b8ff" points="180.38,-24.47 190.85,-22.8 181.63,-17.58 180.38,-24.47"/>
</a>
</g>
</g>
<!-- Node3&#45;&gt;Node2 -->
<g id="edge3_Node000003_Node000002" class="edge">
<title>Node3&#45;&gt;Node2</title>
<g id="a_edge3_Node000003_Node000002"><a xlink:title=" ">
<path fill="none" stroke="#63b8ff" d="M67.03,-19.25C57.83,-21.12 48.69,-22.97 41.04,-24.53"/>
<polygon fill="#63b8ff" stroke="#63b8ff" points="67.87,-22.65 76.97,-17.23 66.47,-15.79 67.87,-22.65"/>
</a>
</g>
</g>
</g>
</svg>
