<?xml version="1.0" encoding="UTF-8" standalone="no"?>
<!DOCTYPE svg PUBLIC "-//W3C//DTD SVG 1.1//EN"
 "http://www.w3.org/Graphics/SVG/1.1/DTD/svg11.dtd">
<!-- Generated by graphviz version 2.42.4 (0)
 -->
<!-- Title: main Pages: 1 -->
<svg width="360pt" height="436pt"
 viewBox="0.00 0.00 360.00 436.00" xmlns="http://www.w3.org/2000/svg" xmlns:xlink="http://www.w3.org/1999/xlink">
<g id="graph0" class="graph" transform="scale(1 1) rotate(0) translate(4 432)">
<title>main</title>
<!-- Node1 -->
<g id="Node000001" class="node">
<title>Node1</title>
<g id="a_Node000001"><a xlink:title="Program entry point and interactive command loop.">
<polygon fill="#999999" stroke="#666666" points="41,-224 0,-224 0,-205 41,-205 41,-224"/>
<text text-anchor="middle" x="20.5" y="-212" font-family="Helvetica,sans-Serif" font-size="10.00">main</text>
</a>
</g>
</g>
<!-- Node2 -->
<g id="Node000002" class="node">
<title>Node2</title>
<g id="a_Node000002"><a xlink:href="documented_8c.html#a5ac8c57000bf344f575d3f3ad1dc4e9f" target="_top" xlink:title="Poll all sessions to detect terminated child processes.">
<polygon fill="white" stroke="#666666" points="171,-428 79,-428 79,-409 171,-409 171,-428"/>
<text text-anchor="middle" x="125" y="-416" font-family="Helvetica,sans-Serif" font-size="10.00">check_sessions</text>
</a>
</g>
</g>
<!-- Node1&#45;&gt;Node2 -->
<g id="edge1_Node000001_Node000002" class="edge">
<title>Node1&#45;&gt;Node2</title>
<g id="a_edge1_Node000001_Node000002"><a xlink:title=" ">
<path fill="none" stroke="#63b8ff" d="M21.54,-224.02C22.19,-254.05 28.2,-347.86 77,-400.5 77.77,-401.33 78.59,-402.13 79.44,-402.89"/>
<polygon fill="#63b8ff" stroke="#63b8ff" points="77.7,-405.94 87.91,-408.77 81.7,-400.19 77.7,-405.94"/>
</a>
</g>
</g>
<!-- Node4 -->
<g id="Node000004" class="node">
<title>Node4</title>
<g id="a_Node000004"><a xlink:href="documented_8c.html#add2ae839253cf752c14f638ded505a22" target="_top" xlink:title="Connect to a remote bind shell using netcat and register a session.">
<polygon fill="white" stroke="#666666" points="169.5,-169 80.5,-169 80.5,-150 169.5,-150 169.5,-169"/>
<text text-anchor="middle" x="125" y="-157" font-family="Helvetica,sans-Serif" font-size="10.00">connect_target</text>
</a>
</g>
</g>
<!-- Node1&#45;&gt;Node4 -->
<g id="edge3_Node000001_Node000004" class="edge">
<title>Node1&#45;&gt;Node4</title>
<g id="a_edge3_Node000001_Node000004"><a xlink:title=" ">
<path fill="none" stroke="#63b8ff" d="M34.75,-204.87C45.73,-197.15 61.92,-186.35 77,-178.5 80.59,-176.63 84.4,-174.83 88.24,-173.11"/>
<polygon fill="#63b8ff" stroke="#63b8ff" points="89.9,-176.21 97.74,-169.08 87.17,-169.77 89.9,-176.21"/>
</a>
</g>
</g>
<!-- Node6 -->
<g id="Node000006" class="node">
<title>Node6</title>
<g id="a_Node000006"><a xlink:href="documented_8c.html#aba3bf760518a9e8f99051a149aa44278" target="_top" xlink:title="Request a remote file be base64&#45;printed so the operator can download it.">
<polygon fill="white" stroke="#666666" points="167,-354 83,-354 83,-335 167,-335 167,-354"/>
<text text-anchor="middle" x="125" y="-342" font-family="Helvetica,sans-Serif" font-size="10.00">download_file</text>
</a>
</g>
</g>
<!-- Node1&#45;&gt;Node6 -->
<g id="edge5_Node000001_Node000006" class="edge">
<title>Node1&#45;&gt;Node6</title>
<g id="a_edge5_Node000001_Node000006"><a xlink:title=" ">
<path fill="none" stroke="#63b8ff" d="M23.7,-224.04C29.08,-245.36 44.9,-297.29 77,-326.5 78.29,-327.67 79.66,-328.77 81.1,-329.8"/>
<polygon fill="#63b8ff" stroke="#63b8ff" points="79.48,-332.91 89.87,-334.97 83.03,-326.88 79.48,-332.91"/>
</a>
</g>
</g>
<!-- Node7 -->
<g id="Node000007" class="node">
<title>Node7</title>
<g id="a_Node000007"><a xlink:href="documented_8c.html#ad3ba7d30d89f8d5afe4b215f0236332f" target="_top" xlink:title=" ">
<polygon fill="white" stroke="#666666" points="168,-317 82,-317 82,-298 168,-298 168,-317"/>
<text text-anchor="middle" x="125" y="-305" font-family="Helvetica,sans-Serif" font-size="10.00">ensure_rlwrap</text>
</a>
</g>
</g>
<!-- Node1&#45;&gt;Node7 -->
<g id="edge6_Node000001_Node000007" class="edge">
<title>Node1&#45;&gt;Node7</title>
<g id="a_edge6_Node000001_Node000007"><a xlink:title=" ">
<path fill="none" stroke="#63b8ff" d="M26.3,-224.17C34.58,-239.94 53.01,-271.27 77,-289.5 78.62,-290.73 80.33,-291.88 82.1,-292.97"/>
<polygon fill="#63b8ff" stroke="#63b8ff" points="80.88,-296.28 91.37,-297.8 84.12,-290.07 80.88,-296.28"/>
</a>
</g>
</g>
<!-- Node8 -->
<g id="Node000008" class="node">
<title>Node8</title>
<g id="a_Node000008"><a xlink:href="documented_8c.html#ae68d61c35976cb4b4e3b2a51f2ae2412" target="_top" xlink:title="Interact with a session in a pseudo&#45;terminal loop.">
<polygon fill="white" stroke="#666666" points="173,-391 77,-391 77,-372 173,-372 173,-391"/>
<text text-anchor="middle" x="125" y="-379" font-family="Helvetica,sans-Serif" font-size="10.00">interact_session</text>
</a>
</g>
</g>
<!-- Node1&#45;&gt;Node8 -->
<g id="edge7_Node000001_Node000008" class="edge">
<title>Node1&#45;&gt;Node8</title>
<g id="a_edge7_Node000001_Node000008"><a xlink:title=" ">
<path fill="none" stroke="#63b8ff" d="M22.4,-224.33C25.32,-250.54 36.78,-322.91 77,-363.5 77.93,-364.44 78.92,-365.34 79.96,-366.18"/>
<polygon fill="#63b8ff" stroke="#63b8ff" points="78.31,-369.29 88.59,-371.83 82.13,-363.43 78.31,-369.29"/>
</a>
</g>
</g>
<!-- Node10 -->
<g id="Node000010" class="node">
<title>Node10</title>
<g id="a_Node000010"><a xlink:href="documented_8c.html#a938464e105c19cfe246687e5ed62e83b" target="_top" xlink:title="Terminate and remove a session by id.">
<polygon fill="white" stroke="#666666" points="162,-243 88,-243 88,-224 162,-224 162,-243"/>
<text text-anchor="middle" x="125" y="-231" font-family="Helvetica,sans-Serif" font-size="10.00">kill_session</text>
</a>
</g>
</g>
<!-- Node1&#45;&gt;Node10 -->
<g id="edge10_Node000001_Node000010" class="edge">
<title>Node1&#45;&gt;Node10</title>
<g id="a_edge10_Node000001_Node000010"><a xlink:title=" ">
<path fill="none" stroke="#63b8ff" d="M41.26,-218.16C51.64,-220.09 64.82,-222.53 77.6,-224.9"/>
<polygon fill="#63b8ff" stroke="#63b8ff" points="77.23,-228.39 87.7,-226.77 78.51,-221.51 77.23,-228.39"/>
</a>
</g>
</g>
<!-- Node11 -->
<g id="Node000011" class="node">
<title>Node11</title>
<g id="a_Node000011"><a xlink:href="documented_8c.html#afaab7ace51d047b5b93a42a1bc808d46" target="_top" xlink:title="Print a list of current sessions to stdout.">
<polygon fill="white" stroke="#666666" points="164.5,-206 85.5,-206 85.5,-187 164.5,-187 164.5,-206"/>
<text text-anchor="middle" x="125" y="-194" font-family="Helvetica,sans-Serif" font-size="10.00">list_sessions</text>
</a>
</g>
</g>
<!-- Node1&#45;&gt;Node11 -->
<g id="edge11_Node000001_Node000011" class="edge">
<title>Node1&#45;&gt;Node11</title>
<g id="a_edge11_Node000001_Node000011"><a xlink:title=" ">
<path fill="none" stroke="#63b8ff" d="M41.26,-211.03C50.99,-209.32 63.19,-207.18 75.2,-205.07"/>
<polygon fill="#63b8ff" stroke="#63b8ff" points="75.95,-208.49 85.19,-203.31 74.74,-201.6 75.95,-208.49"/>
</a>
</g>
</g>
<!-- Node12 -->
<g id="Node000012" class="node">
<title>Node12</title>
<g id="a_Node000012"><a xlink:href="documented_8c.html#ad6da18174ed9892c214e56bac27bfc7f" target="_top" xlink:title="Print the ASCII art banner and program metadata.">
<polygon fill="white" stroke="#666666" points="164,-132 86,-132 86,-113 164,-113 164,-132"/>
<text text-anchor="middle" x="125" y="-120" font-family="Helvetica,sans-Serif" font-size="10.00">print_banner</text>
</a>
</g>
</g>
<!-- Node1&#45;&gt;Node12 -->
<g id="edge12_Node000001_Node000012" class="edge">
<title>Node1&#45;&gt;Node12</title>
<g id="a_edge12_Node000001_Node000012"><a xlink:title=" ">
<path fill="none" stroke="#63b8ff" d="M26.68,-204.65C35.24,-189.22 53.72,-159.29 77,-141.5 79.29,-139.75 81.77,-138.13 84.35,-136.65"/>
<polygon fill="#63b8ff" stroke="#63b8ff" points="86.02,-139.72 93.37,-132.09 82.87,-133.47 86.02,-139.72"/>
</a>
</g>
</g>
<!-- Node13 -->
<g id="Node000013" class="node">
<title>Node13</title>
<g id="a_Node000013"><a xlink:href="documented_8c.html#a853216ac51aa181669ff4d3de74058a7" target="_top" xlink:title="Print the interactive help / command menu to stdout.">
<polygon fill="white" stroke="#666666" points="313,-113 248,-113 248,-94 313,-94 313,-113"/>
<text text-anchor="middle" x="280.5" y="-101" font-family="Helvetica,sans-Serif" font-size="10.00">print_help</text>
</a>
</g>
</g>
<!-- Node1&#45;&gt;Node13 -->
<g id="edge14_Node000001_Node000013" class="edge">
<title>Node1&#45;&gt;Node13</title>
<g id="a_edge14_Node000001_Node000013"><a xlink:title=" ">
<path fill="none" stroke="#63b8ff" d="M22.96,-204.92C26.94,-182.58 40.26,-127.24 77,-104.5 125.71,-74.35 194.45,-82.18 237.99,-91.85"/>
<polygon fill="#63b8ff" stroke="#63b8ff" points="237.41,-95.31 247.95,-94.19 239.01,-88.49 237.41,-95.31"/>
</a>
</g>
</g>
<!-- Node14 -->
<g id="Node000014" class="node">
<title>Node14</title>
<g id="a_Node000014"><a xlink:href="documented_8c.html#a63e555e101e53f240af566cf6650ac8d" target="_top" xlink:title="Start a netcat listener on the specified port and register a session.">
<polygon fill="white" stroke="#666666" points="165.5,-280 84.5,-280 84.5,-261 165.5,-261 165.5,-280"/>
<text text-anchor="middle" x="125" y="-268" font-family="Helvetica,sans-Serif" font-size="10.00">start_listener</text>
</a>
</g>
</g>
<!-- Node1&#45;&gt;Node14 -->
<g id="edge15_Node000001_Node000014" class="edge">
<title>Node1&#45;&gt;Node14</title>
<g id="a_edge15_Node000001_Node000014"><a xlink:title=" ">
<path fill="none" stroke="#63b8ff" d="M33.75,-224.14C44.66,-232.4 61.28,-244.26 77,-252.5 79.94,-254.04 83.04,-255.52 86.2,-256.93"/>
<polygon fill="#63b8ff" stroke="#63b8ff" points="85.11,-260.27 95.69,-260.89 87.81,-253.81 85.11,-260.27"/>
</a>
</g>
</g>
<!-- Node15 -->
<g id="Node000015" class="node">
<title>Node15</title>
<g id="a_Node000015"><a xlink:href="documented_8c.html#aa0c4fb26e646322e0ed84eaccb9abec6" target="_top" xlink:title="Attempt to upgrade a remote shell into an interactive PTY.">
<polygon fill="white" stroke="#666666" points="153,-56 97,-56 97,-37 153,-37 153,-56"/>
<text text-anchor="middle" x="125" y="-44" font-family="Helvetica,sans-Serif" font-size="10.00">upgrade</text>
</a>
</g>
</g>
<!-- Node1&#45;&gt;Node15 -->
<g id="edge17_Node000001_Node000015" class="edge">
<title>Node1&#45;&gt;Node15</title>
<g id="a_edge17_Node000001_Node000015"><a xlink:title=" ">
<path fill="none" stroke="#63b8ff" d="M22.8,-204.86C26.63,-179.76 40.06,-111.51 77,-70.5 80.12,-67.04 83.86,-64 87.84,-61.36"/>
<polygon fill="#63b8ff" stroke="#63b8ff" points="89.89,-64.22 96.81,-56.2 86.4,-58.15 89.89,-64.22"/>
</a>
</g>
</g>
<!-- Node16 -->
<g id="Node000016" class="node">
<title>Node16</title>
<g id="a_Node000016"><a xlink:href="documented_8c.html#abf50d19801c0a1a670c979ed7414476f" target="_top" xlink:title="Upload a local file to a remote session by sending base64 chunks.">
<polygon fill="white" stroke="#666666" points="160,-19 90,-19 90,0 160,0 160,-19"/>
<text text-anchor="middle" x="125" y="-7" font-family="Helvetica,sans-Serif" font-size="10.00">upload_file</text>
</a>
</g>
</g>
<!-- Node1&#45;&gt;Node16 -->
<g id="edge18_Node000001_Node000016" class="edge">
<title>Node1&#45;&gt;Node16</title>
<g id="a_edge18_Node000001_Node000016"><a xlink:title=" ">
<path fill="none" stroke="#63b8ff" d="M21.52,-204.93C22.12,-174.74 28,-80.44 77,-27.5 78.22,-26.18 79.56,-24.95 80.97,-23.81"/>
<polygon fill="#63b8ff" stroke="#63b8ff" points="83.22,-26.53 89.8,-18.23 79.48,-20.62 83.22,-26.53"/>
</a>
</g>
</g>
<!-- Node3 -->
<g id="Node000003" class="node">
<title>Node3</title>
<g id="a_Node000003"><a xlink:href="documented_8c.html#a90c498b005e5a791ee3571c7526d6ef8" target="_top" xlink:title="Remove and cleanup a session by array index (0&#45;based).">
<polygon fill="white" stroke="#666666" points="352,-428 209,-428 209,-409 352,-409 352,-428"/>
<text text-anchor="middle" x="280.5" y="-416" font-family="Helvetica,sans-Serif" font-size="10.00">remove_session_at_index</text>
</a>
</g>
</g>
<!-- Node2&#45;&gt;Node3 -->
<g id="edge2_Node000002_Node000003" class="edge">
<title>Node2&#45;&gt;Node3</title>
<g id="a_edge2_Node000002_Node000003"><a xlink:title=" ">
<path fill="none" stroke="#63b8ff" d="M171.22,-418.5C179.93,-418.5 189.28,-418.5 198.72,-418.5"/>
<polygon fill="#63b8ff" stroke="#63b8ff" points="198.97,-422 208.97,-418.5 198.97,-415 198.97,-422"/>
</a>
</g>
</g>
<!-- Node5 -->
<g id="Node000005" class="node">
<title>Node5</title>
<g id="a_Node000005"><a xlink:href="documented_8c.html#aba6e2f92cbc0c6c6269dfd20063439d4" target="_top" xlink:title="Add a new session to the global session list.">
<polygon fill="white" stroke="#666666" points="319,-224 242,-224 242,-205 319,-205 319,-224"/>
<text text-anchor="middle" x="280.5" y="-212" font-family="Helvetica,sans-Serif" font-size="10.00">add_session</text>
</a>
</g>
</g>
<!-- Node4&#45;&gt;Node5 -->
<g id="edge4_Node000004_Node000005" class="edge">
<title>Node4&#45;&gt;Node5</title>
<g id="a_edge4_Node000004_Node000005"><a xlink:title=" ">
<path fill="none" stroke="#63b8ff" d="M152.74,-169.08C177.75,-178.04 215.32,-191.51 243.07,-201.45"/>
<polygon fill="#63b8ff" stroke="#63b8ff" points="242.22,-204.86 252.81,-204.94 244.58,-198.27 242.22,-204.86"/>
</a>
</g>
</g>
<!-- Node8&#45;&gt;Node3 -->
<g id="edge9_Node000008_Node000003" class="edge">
<title>Node8&#45;&gt;Node3</title>
<g id="a_edge9_Node000008_Node000003"><a xlink:title=" ">
<path fill="none" stroke="#63b8ff" d="M165.53,-391.03C185.15,-395.76 209.05,-401.52 229.89,-406.54"/>
<polygon fill="#63b8ff" stroke="#63b8ff" points="229.3,-410 239.84,-408.94 230.94,-403.19 229.3,-410"/>
</a>
</g>
</g>
<!-- Node9 -->
<g id="Node000009" class="node">
<title>Node9</title>
<g id="a_Node000009"><a xlink:href="documented_8c.html#a504d35ae75d68968c45f141b3bbcbbcd" target="_top" xlink:title="Read and print available output from a session&#39;s output pipe.">
<polygon fill="white" stroke="#666666" points="319.5,-391 241.5,-391 241.5,-372 319.5,-372 319.5,-391"/>
<text text-anchor="middle" x="280.5" y="-379" font-family="Helvetica,sans-Serif" font-size="10.00">drain_output</text>
</a>
</g>
</g>
<!-- Node8&#45;&gt;Node9 -->
<g id="edge8_Node000008_Node000009" class="edge">
<title>Node8&#45;&gt;Node9</title>
<g id="a_edge8_Node000008_Node000009"><a xlink:title=" ">
<path fill="none" stroke="#63b8ff" d="M173.31,-381.5C191.66,-381.5 212.65,-381.5 231.1,-381.5"/>
<polygon fill="#63b8ff" stroke="#63b8ff" points="231.34,-385 241.34,-381.5 231.34,-378 231.34,-385"/>
</a>
</g>
</g>
<!-- Node12&#45;&gt;Node13 -->
<g id="edge13_Node000012_Node000013" class="edge">
<title>Node12&#45;&gt;Node13</title>
<g id="a_edge13_Node000012_Node000013"><a xlink:title=" ">
<path fill="none" stroke="#63b8ff" d="M164.34,-117.75C186.67,-114.99 214.85,-111.5 237.74,-108.67"/>
<polygon fill="#63b8ff" stroke="#63b8ff" points="238.35,-112.12 247.85,-107.42 237.49,-105.17 238.35,-112.12"/>
</a>
</g>
</g>
<!-- Node14&#45;&gt;Node5 -->
<g id="edge16_Node000014_Node000005" class="edge">
<title>Node14&#45;&gt;Node5</title>
<g id="a_edge16_Node000014_Node000005"><a xlink:title=" ">
<path fill="none" stroke="#63b8ff" d="M152.39,-260.87C177.69,-251.64 216.07,-237.64 244.04,-227.44"/>
<polygon fill="#63b8ff" stroke="#63b8ff" points="245.26,-230.72 253.46,-224 242.86,-224.14 245.26,-230.72"/>
</a>
</g>
</g>
<!-- Node17 -->
<g id="Node000017" class="node">
<title>Node17</title>
<g id="a_Node000017"><a xlink:href="documented_8c.html#ac653f5b6dfa7a11107cdcc4e6b8c721c" target="_top" xlink:title="Encode a buffer into base64.">
<polygon fill="white" stroke="#666666" points="326.5,-19 234.5,-19 234.5,0 326.5,0 326.5,-19"/>
<text text-anchor="middle" x="280.5" y="-7" font-family="Helvetica,sans-Serif" font-size="10.00">base64_encode</text>
</a>
</g>
</g>
<!-- Node16&#45;&gt;Node17 -->
<g id="edge19_Node000016_Node000017" class="edge">
<title>Node16&#45;&gt;Node17</title>
<g id="a_edge19_Node000016_Node000017"><a xlink:title=" ">
<path fill="none" stroke="#63b8ff" d="M160.07,-9.5C178.89,-9.5 202.74,-9.5 224.16,-9.5"/>
<polygon fill="#63b8ff" stroke="#63b8ff" points="224.46,-13 234.46,-9.5 224.46,-6 224.46,-13"/>
</a>
</g>
</g>
</g>
</svg>
